HIERARCHY
ROOT Hips
{
	OFFSET 0.000000 0.000000 0.000000 
	CHANNELS 6 Xposition Yposition Zposition Yrotation Zrotation Xrotation 
	JOINT Lumbar
	{
		OFFSET 0.000000 0.000000 0.000000 
		CHANNELS 3 Zrotation Xrotation Yrotation
		JOINT Neck
		{
			OFFSET 0.000000 0.445665 0.000000 
			CHANNELS 3 Zrotation Xrotation Yrotation
			End Site
			{
				OFFSET 0.000000 0.227535 0.000000 
			}
		}
		JOINT RightShoulder
		{
			OFFSET 0.019635 0.377685 0.194865 
			CHANNELS 3 Zrotation Xrotation Yrotation
			JOINT RightElbow
			{
				OFFSET 0.000000 -0.243375 0.000000 
				CHANNELS 2 Zrotation Yrotation
				JOINT RightWrist
				{
					OFFSET 0.000000 -0.264825 0.000000 
					CHANNELS 2 Zrotation Xrotation
					End Site
					{
						OFFSET 0.006600 -0.176220 0.000990 
					}
				}
			}
		}
		JOINT LeftShoulder
		{
			OFFSET 0.019635 0.377685 -0.194865 
			CHANNELS 3 Zrotation Xrotation Yrotation
			JOINT LeftElbow
			{
				OFFSET 0.000000 -0.243375 0.000000 
				CHANNELS 2 Zrotation Yrotation
				JOINT LeftWrist
				{
					OFFSET 0.000000 -0.264825 0.000000 
					CHANNELS 2 Zrotation Xrotation
					End Site
					{
						OFFSET 0.006600 -0.176220 -0.000990 
					}
				}
			}
		}
	}
	JOINT RightHip
	{
		OFFSET 0.052140 -0.069960 0.075570 
		CHANNELS 3 Zrotation Xrotation Yrotation
		JOINT RightKnee
		{
			OFFSET 0.000000 -0.402270 0.000000 
			CHANNELS 1 Zrotation
			JOINT RightAnkle
			{
				OFFSET 0.000000 -0.404085 0.000000 
				CHANNELS 3 Zrotation Xrotation Yrotation
				End Site
				{
					OFFSET 0.204105 -0.089430 0.008415 
				}
			}
		}
	}
	JOINT LeftHip
	{
		OFFSET 0.052140 -0.069960 -0.075570 
		CHANNELS 3 Zrotation Xrotation Yrotation
		JOINT LeftKnee
		{
			OFFSET 0.000000 -0.402270 0.000000 
			CHANNELS 1 Zrotation
			JOINT LeftAnkle
			{
				OFFSET 0.000000 -0.404085 0.000000 
				CHANNELS 3 Zrotation Xrotation Yrotation
				End Site
				{
					OFFSET 0.204105 -0.089430 -0.008415 
				}
			}
		}
	}
}
MOTION
Frames: 22
Frame Time: 0.02
-0.25097 0.01171 0.06692 208.53446 -25.42639 -2.52206 37.85991 6.15585 -6.14155 -22.0093 12.41548 -0.83077 35.08876 -64.6933 14.2497 43.97348 84.24882 1.30956 1.18485 -41.88328 21.22033 -22.18817 67.02114 -95.22747 10.02972 -0.15863 24.57994 -0.82377 -8.39828 -17.6483 -7.75754 -3.62168 -2.60356 29.84176 15.30846 0.11749 -24.13799 -10.69681 4.33663 3.15213
-0.25108 0.01178 0.07515 208.16455 -25.43624 -2.68495 38.32793 6.03014 -6.14706 -21.81248 12.34741 -0.83077 30.85521 -63.43544 9.72191 45.34822 83.9368 1.03758 1.10747 -42.03694 20.5256 -21.32486 66.97229 -99.9161 10.90736 -1.00765 24.31085 -1.09652 -8.04345 -17.46019 -7.8019 -3.61877 -2.60415 29.38655 15.01961 0.43004 -24.06659 -10.55887 4.39021 3.17701
-0.25006 0.01231 0.08374 207.94327 -25.50278 -2.75964 38.73776 5.85876 -6.25365 -21.58762 12.30156 -0.83077 26.4336 -62.25258 5.29323 47.18722 83.64183 0.88234 0.93703 -42.25613 19.63269 -20.20504 66.84503 -105.80439 12.05335 -2.06208 24.13346 -1.47996 -7.5651 -17.20875 -7.89871 -3.63864 -2.61976 29.13326 14.53224 0.60143 -24.02861 -10.42989 4.44405 3.20189
-0.24948 0.01261 0.09217 207.65251 -25.53189 -2.87277 39.15399 5.71203 -6.3124 -21.37841 12.24527 -0.83077 22.15409 -61.03342 0.87339 48.79563 83.34336 0.6698 0.80214 -42.45086 18.86136 -19.23568 66.76666 -110.81243 13.00252 -2.96574 23.9075 -1.81682 -7.13324 -16.98904 -7.97284 -3.64915 -2.6291 28.78186 14.13312 0.84912 -23.98135 -10.29598 4.49717 3.22633
-0.24924 0.013 0.10058 207.36966 -25.61061 -2.99427 39.65756 5.55067 -6.37824 -21.15922 12.18844 -0.83077 17.62013 -59.82333 -3.7866 50.5032 83.0249 0.4753 0.69344 -42.62488 17.95212 -18.11912 66.63252 -117.21734 14.26505 -4.10825 23.7093 -2.13836 -6.7433 -16.7551 -8.04158 -3.6554 -2.63603 28.45775 13.74406 1.06471 -23.90629 -10.16172 4.55224 3.25217
-0.24802 0.0133 0.10913 207.10493 -25.59949 -3.0765 39.96448 5.40834 -6.45308 -20.95476 12.13888 -0.83077 13.58276 -58.61432 -7.91074 52.10532 82.75203 0.27044 0.51064 -42.85628 17.28278 -17.2478 66.59462 -121.04795 14.94894 -4.81112 23.4782 -2.51852 -6.23566 -16.53983 -8.13419 -3.67588 -2.65153 28.12487 13.28462 1.30247 -23.89795 -10.03215 4.60383 3.27546
-0.24448 0.01332 0.11796 206.86471 -25.32442 -3.07602 39.74122 5.32852 -6.53653 -20.77939 12.10225 -0.83077 10.89748 -57.36461 -10.66746 53.33765 82.61212 0.01483 0.12517 -43.23779 17.35157 -17.14259 66.85656 -116.92705 13.85226 -4.15257 23.10236 -3.02607 -5.44187 -16.35129 -8.28026 -3.73114 -2.68748 27.71443 12.69986 1.68425 -24.06761 -9.90938 4.64206 3.2893
-0.23998 0.01323 0.12691 206.63633 -24.95731 -3.03826 39.32211 5.26928 -6.62487 -20.62248 12.07257 -0.83078 8.73223 -56.11786 -12.87083 54.43926 82.51615 -0.256 -0.32777 -43.6729 17.66489 -17.28969 67.21528 -110.26459 12.18318 -3.06055 22.69652 -3.58978 -4.53325 -16.19205 -8.44862 -3.79969 -2.73144 27.28871 12.04786 2.0831 -24.3027 -9.79218 4.67734 3.30097
-0.23587 0.01316 0.13581 206.39481 -24.63351 -3.0145 38.99296 5.20128 -6.70475 -20.46893 12.04133 -0.83078 6.37251 -54.88606 -15.26975 55.5761 82.39271 -0.52451 -0.73599 -44.07865 17.84914 -17.30431 67.52027 -105.13089 10.85373 -2.23165 22.32396 -4.13281 -3.67016 -16.04415 -8.6065 -3.86157 -2.77147 26.87255 11.41255 2.43911 -24.50779 -9.67567 4.7166 3.31535
-0.23191 0.01322 0.14471 206.18874 -24.30527 -2.99955 38.65706 5.12968 -6.81166 -20.26577 12.00479 -0.83078 3.82799 -53.58802 -17.90317 56.83211 82.30016 -0.77113 -1.20652 -44.50904 18.10097 -17.38263 67.8643 -98.4923 9.20443 -1.13628 21.86898 -4.66029 -2.82661 -15.7855 -8.76738 -3.92719 -2.81335 26.45279 10.82662 2.93445 -24.71773 -9.54622 4.74533 3.3228
-0.22744 0.01298 0.15363 205.91281 -23.96391 -2.95924 38.29039 5.07049 -6.86563 -20.16954 11.97975 -0.83078 1.79603 -52.42778 -19.91581 57.80192 82.15513 -1.06648 -1.56244 -44.89847 18.27411 -17.39464 68.15021 -94.3306 8.07398 -0.48344 21.58072 -5.23075 -1.92204 -15.7709 -8.92701 -3.98756 -2.85293 26.03378 10.12729 3.15062 -24.92941 -9.44441 4.79456 3.34372
-0.22177 0.01195 0.16265 205.41497 -23.6076 -2.85261 37.87993 5.04503 -6.74253 -20.37324 11.99237 -0.83078 1.0384 -51.64578 -20.36901 58.01798 81.84109 -1.50952 -1.58173 -45.17421 18.15992 -17.1372 68.25947 -97.94777 8.58241 -1.21542 21.73105 -5.91618 -0.83272 -16.37431 -9.07381 -4.03295 -2.88559 25.62494 9.10846 2.54677 -25.15844 -9.42225 4.90736 3.40619
-0.21563 0.01063 0.17167 204.85138 -23.24191 -2.72337 37.44764 5.03052 -6.57146 -20.68186 12.01461 -0.83078 0.78097 -51.002 -20.21411 57.94752 81.47556 -1.99799 -1.48352 -45.40433 17.96132 -16.81048 68.30595 -104.07657 9.61884 -2.39528 22.05514 -6.63996 0.3044 -17.2308 -9.2187 -4.07208 -2.91538 25.21645 7.98361 1.67021 -25.38186 -9.42678 5.03966 3.48152
-0.20973 0.00946 0.18064 204.33319 -22.88016 -2.60829 37.02899 5.0085 -6.44077 -20.93717 12.02755 -0.83078 0.30614 -50.29586 -20.32459 58.00256 81.14172 -2.45583 -1.44108 -45.64658 17.80874 -16.5326 68.37658 -108.84543 10.36911 -3.33281 22.31832 -7.33974 1.39088 -18.00483 -9.36724 -4.11201 -2.94545 24.80272 6.92261 0.94894 -25.5885 -9.41603 5.15904 3.54849
-0.20369 0.0082 0.18983 203.74656 -22.51374 -2.4748 36.58434 4.99865 -6.23008 -21.21884 12.06228 -0.83078 -0.18746 -49.58899 -20.45931 58.07229 80.77268 -2.95839 -1.39122 -45.92647 17.63105 -16.18903 68.4688 -114.46279 11.29555 -4.42233 22.50438 -8.0715 2.6066 -18.64616 -9.50631 -4.16059 -2.97995 24.40629 5.79087 0.09674 -25.87752 -9.41889 5.29574 3.6262
-0.19786 0.00708 0.19855 203.291 -22.15959 -2.37561 36.19551 4.96479 -6.17679 -21.46782 12.05291 -0.83078 -0.53633 -48.91512 -20.40977 58.0462 80.46636 -3.37575 -1.32782 -46.11714 17.48392 -15.96389 68.5002 -118.92486 11.98676 -5.30323 22.89256 -8.74224 3.55914 -19.61888 -9.66254 -4.19006 -3.00467 23.9788 4.78488 -0.54887 -25.9947 -9.39951 5.40067 3.6844
-0.19257 0.0064 0.20607 203.17611 -21.81118 -2.36943 35.93009 4.87064 -6.54948 -21.62205 11.92695 -0.83078 -0.55423 -48.31045 -19.97183 57.81351 80.32662 -3.56983 -1.25691 -46.06602 17.42771 -16.06984 68.37586 -119.75652 11.9137 -5.53761 23.79708 -9.25866 3.80467 -21.48384 -9.88163 -4.16292 -3.00091 23.42431 4.12961 -0.54646 -25.62194 -9.31333 5.41633 3.68752
-0.18754 0.00589 0.2131 203.2021 -21.48134 -2.39985 35.72899 4.75025 -7.08511 -21.73578 11.75483 -0.83078 -0.45591 -47.73257 -19.3765 57.49597 80.25496 -3.67249 -1.17589 -45.92763 17.40615 -16.29781 68.19259 -119.32968 11.58776 -5.54349 24.89831 -9.70786 3.77697 -23.66477 -10.11494 -4.11741 -2.98763 22.84602 3.60905 -0.3282 -25.07945 -9.20357 5.39874 3.6702
-0.1825 0.00535 0.22028 203.18828 -21.16374 -2.41872 35.52356 4.63607 -7.56058 -21.85395 11.59889 -0.83078 -0.44918 -47.13384 -18.876 57.22729 80.16479 -3.80142 -1.09833 -45.83321 17.37737 -16.47806 68.03783 -119.36383 11.36855 -5.6279 25.91005 -10.17186 3.85351 -25.67701 -10.33202 -4.08408 -2.98033 22.30597 3.042 -0.21678 -24.62509 -9.10382 5.39435 3.66103
-0.177 0.00463 0.22775 203.07075 -20.7595 -2.41628 35.21358 4.54638 -7.97939 -22.03445 11.46355 -0.83078 -0.2628 -46.57412 -18.25987 56.90984 80.02123 -3.99529 -1.02137 -45.71903 17.31167 -16.62641 67.87358 -119.90836 11.19415 -5.82612 26.93113 -10.70293 4.01703 -27.80968 -10.59108 -4.03546 -2.96661 21.6512 2.40929 -0.08059 -24.1233 -9.00802 5.39884 3.6572
-0.17253 0.0043 0.23448 203.20251 -20.53897 -2.46599 35.13512 4.39935 -8.55097 -22.07452 11.27421 -0.83078 -0.42731 -45.94079 -17.84977 56.67159 80.00464 -4.03305 -0.94248 -45.62588 17.32979 -16.86729 67.71601 -119.1138 10.86941 -5.73776 27.97356 -11.07882 3.93248 -29.75618 -10.7651 -4.01304 -2.9632 21.22841 1.94636 0.06214 -23.68116 -8.898 5.3765 3.63711
-0.1708 0.00509 0.23931 203.99733 -20.83167 -2.66136 35.6958 4.10003 -9.5425 -21.73335 10.94704 -0.83078 -1.61138 -45.07177 -18.09367 56.724 80.33095 -3.64938 -0.86015 -45.61135 17.59187 -17.36674 67.59012 -114.42674 10.10031 -4.81859 29.05635 -11.0332 3.24297 -31.1703 -10.70968 -4.07963 -2.99786 21.46234 1.92277 0.14214 -23.43533 -8.75505 5.29 3.57827
